<svg width="0" height="0" class="hidden">
  <symbol version="1.1" xmlns="http://www.w3.org/2000/svg" xmlns:xlink="http://www.w3.org/1999/xlink" enable-background="new 0 0 511 511" viewBox="0 0 511 511" id="website">
    <g>
      <path d="m487.5,16h-464c-12.958,0-23.5,10.542-23.5,23.5v432c0,12.958 10.542,23.5 23.5,23.5h464c12.958,0 23.5-10.542 23.5-23.5v-432c0-12.958-10.542-23.5-23.5-23.5zm-464,15h464c4.687,0 8.5,3.813 8.5,8.5v40.5h-481v-40.5c0-4.687 3.813-8.5 8.5-8.5zm464,449h-464c-4.687,0-8.5-3.813-8.5-8.5v-376.5h481v376.5c0,4.687-3.813,8.5-8.5,8.5z"></path>
      <path d="m39.5,63c1.97,0 3.91-0.8 5.3-2.2 1.4-1.39 2.2-3.33 2.2-5.3 0-1.97-0.8-3.91-2.2-5.3-1.39-1.4-3.32-2.2-5.3-2.2-1.97,0-3.91,0.8-5.3,2.2-1.4,1.39-2.2,3.33-2.2,5.3 0,1.97 0.8,3.91 2.2,5.3 1.39,1.399 3.33,2.2 5.3,2.2z"></path>
      <path d="m63.5,63c1.97,0 3.91-0.8 5.3-2.2 1.4-1.39 2.2-3.33 2.2-5.3 0-1.97-0.8-3.91-2.2-5.3-1.39-1.4-3.32-2.2-5.3-2.2-1.97,0-3.91,0.8-5.3,2.2-1.4,1.39-2.2,3.33-2.2,5.3 0,1.97 0.8,3.91 2.2,5.3 1.39,1.399 3.33,2.2 5.3,2.2z"></path>
      <path d="m87.5,63c1.97,0 3.91-0.8 5.3-2.2 1.4-1.39 2.2-3.33 2.2-5.3 0-1.97-0.8-3.91-2.2-5.3-1.39-1.4-3.32-2.2-5.3-2.2-1.97,0-3.91,0.8-5.3,2.2-1.4,1.39-2.2,3.33-2.2,5.3 0,1.97 0.8,3.91 2.2,5.3 1.39,1.399 3.33,2.2 5.3,2.2z"></path>
      <path d="m215,271.5c0-12.958-10.542-23.5-23.5-23.5-10.336,0-19.128,6.71-22.266,16h-43.469c-1.096-3.244-2.879-6.171-5.179-8.609l11.051-16.577c1.064,0.11 2.135,0.186 3.218,0.186h48.645c17.369,0 31.5-14.131 31.5-31.5v-56c0-4.142-3.358-7.5-7.5-7.5h-123.477l-3.64-7.148c-2.556-5.383-8.033-8.852-14.002-8.852h-10.881c-4.142,0-7.5,3.358-7.5,7.5s3.358,7.5 7.5,7.5h10.881c0.194,0 0.373,0.114 0.454,0.29 0.041,0.088 0.083,0.175 0.127,0.261l39.358,77.289c2.438,5.214 6.23,9.539 10.828,12.668l-9.867,14.8c-1.232-0.2-2.494-0.308-3.781-0.308-12.958,0-23.5,10.542-23.5,23.5s10.542,23.5 23.5,23.5c10.336,0 19.128-6.71 22.266-16h43.469c3.138,9.29 11.93,16 22.266,16 12.957,0 23.499-10.542 23.499-23.5zm-123.338-112.5h108.338v48.5c0,9.098-7.402,16.5-16.5,16.5h-48.644c-6.413,0-12.294-3.763-14.981-9.586-0.041-0.087-0.083-0.174-0.126-0.26l-28.087-55.154zm11.838,121c-4.687,0-8.5-3.813-8.5-8.5s3.813-8.5 8.5-8.5 8.5,3.813 8.5,8.5-3.813,8.5-8.5,8.5zm88,0c-4.687,0-8.5-3.813-8.5-8.5s3.813-8.5 8.5-8.5 8.5,3.813 8.5,8.5-3.813,8.5-8.5,8.5z"></path>
      <path d="m303.5,320h-96c-8.547,0-15.5,6.953-15.5,15.5v48c0,8.547 6.953,15.5 15.5,15.5h96c8.547,0 15.5-6.953 15.5-15.5v-48c0-8.547-6.953-15.5-15.5-15.5zm.5,63.5c0,0.276-0.224,0.5-0.5,0.5h-96c-0.276,0-0.5-0.224-0.5-0.5v-48c0-0.276 0.224-0.5 0.5-0.5h96c0.276,0 0.5,0.224 0.5,0.5v48z"></path>
      <path d="m159.5,320h-96c-8.547,0-15.5,6.953-15.5,15.5v48c0,8.547 6.953,15.5 15.5,15.5h96c8.547,0 15.5-6.953 15.5-15.5v-48c0-8.547-6.953-15.5-15.5-15.5zm.5,63.5c0,0.276-0.224,0.5-0.5,0.5h-96c-0.276,0-0.5-0.224-0.5-0.5v-48c0-0.276 0.224-0.5 0.5-0.5h96c0.276,0 0.5,0.224 0.5,0.5v48z"></path>
      <path d="m447.5,320h-96c-8.547,0-15.5,6.953-15.5,15.5v48c0,8.547 6.953,15.5 15.5,15.5h96c8.547,0 15.5-6.953 15.5-15.5v-48c0-8.547-6.953-15.5-15.5-15.5zm.5,63.5c0,0.276-0.224,0.5-0.5,0.5h-96c-0.276,0-0.5-0.224-0.5-0.5v-48c0-0.276 0.224-0.5 0.5-0.5h96c0.276,0 0.5,0.224 0.5,0.5v48z"></path>
      <path d="m167.5,416h-112c-4.142,0-7.5,3.358-7.5,7.5s3.358,7.5 7.5,7.5h112c4.142,0 7.5-3.358 7.5-7.5s-3.358-7.5-7.5-7.5z"></path>
      <path d="m311.5,416h-112c-4.142,0-7.5,3.358-7.5,7.5s3.358,7.5 7.5,7.5h112c4.142,0 7.5-3.358 7.5-7.5s-3.358-7.5-7.5-7.5z"></path>
      <path d="m455.5,416h-112c-4.142,0-7.5,3.358-7.5,7.5s3.358,7.5 7.5,7.5h112c4.142,0 7.5-3.358 7.5-7.5s-3.358-7.5-7.5-7.5z"></path>
      <path d="m399.5,448h-56c-4.142,0-7.5,3.358-7.5,7.5s3.358,7.5 7.5,7.5h56c4.142,0 7.5-3.358 7.5-7.5s-3.358-7.5-7.5-7.5z"></path>
      <path d="m255.5,448h-56c-4.142,0-7.5,3.358-7.5,7.5s3.358,7.5 7.5,7.5h56c4.142,0 7.5-3.358 7.5-7.5s-3.358-7.5-7.5-7.5z"></path>
      <path d="m111.5,448h-56c-4.142,0-7.5,3.358-7.5,7.5s3.358,7.5 7.5,7.5h56c4.142,0 7.5-3.358 7.5-7.5s-3.358-7.5-7.5-7.5z"></path>
      <path d="m263.5,143h72c4.142,0 7.5-3.358 7.5-7.5s-3.358-7.5-7.5-7.5h-72c-4.142,0-7.5,3.358-7.5,7.5s3.358,7.5 7.5,7.5z"></path>
      <path d="m455.5,160h-192c-4.142,0-7.5,3.358-7.5,7.5s3.358,7.5 7.5,7.5h192c4.142,0 7.5-3.358 7.5-7.5s-3.358-7.5-7.5-7.5z"></path>
      <path d="m455.5,208h-152c-4.142,0-7.5,3.358-7.5,7.5s3.358,7.5 7.5,7.5h152c4.142,0 7.5-3.358 7.5-7.5s-3.358-7.5-7.5-7.5z"></path>
      <path d="m455.5,240h-152c-4.142,0-7.5,3.358-7.5,7.5s3.358,7.5 7.5,7.5h152c4.142,0 7.5-3.358 7.5-7.5s-3.358-7.5-7.5-7.5z"></path>
      <path d="m455.5,272h-152c-4.142,0-7.5,3.358-7.5,7.5s3.358,7.5 7.5,7.5h152c4.142,0 7.5-3.358 7.5-7.5s-3.358-7.5-7.5-7.5z"></path>
      <path d="m263.5,223h8c4.142,0 7.5-3.358 7.5-7.5s-3.358-7.5-7.5-7.5h-8c-4.142,0-7.5,3.358-7.5,7.5s3.358,7.5 7.5,7.5z"></path>
      <path d="m263.5,255h8c4.142,0 7.5-3.358 7.5-7.5s-3.358-7.5-7.5-7.5h-8c-4.142,0-7.5,3.358-7.5,7.5s3.358,7.5 7.5,7.5z"></path>
      <path d="m263.5,287h8c4.142,0 7.5-3.358 7.5-7.5s-3.358-7.5-7.5-7.5h-8c-4.142,0-7.5,3.358-7.5,7.5s3.358,7.5 7.5,7.5z"></path>
    </g>
  </symbol>
  <symbol fill="none" xmlns="http://www.w3.org/2000/svg" viewBox="0 0 15 15" id="terminal">
    <path d="M3.5 4.5L6.5 7.5L3.5 10.5M8 10.5H12M1.5 1.5H13.5C14.0523 1.5 14.5 1.94772 14.5 2.5V12.5C14.5 13.0523 14.0523 13.5 13.5 13.5H1.5C0.947716 13.5 0.5 13.0523 0.5 12.5V2.5C0.5 1.94772 0.947715 1.5 1.5 1.5Z" stroke="black"></path>
  </symbol>
  <symbol version="1.1" id="sports" xmlns="http://www.w3.org/2000/svg" xmlns:xlink="http://www.w3.org/1999/xlink" x="0px" y="0px" xml:space="preserve" viewBox="0 0 28.162 28.162">
    <g>
      <g>
        <path d="M16.751,0.197c-3.425,0-6.494,1.523-8.588,3.919c0.749-0.174,1.523-0.278,2.315-0.315
			c-0.047-0.098-0.09-0.187-0.126-0.265c1.761-1.398,3.98-2.239,6.398-2.239c0.693,0,1.371,0.071,2.025,0.202
			c-0.616,0.761-1.56,2.104-1.957,3.619c0.264,0.13,0.521,0.267,0.771,0.413c0.367-1.663,1.544-3.183,2.079-3.806
			c1.797,0.532,3.386,1.543,4.629,2.882c-0.862,0.407-2.547,1.263-4.502,2.545c0.207,0.19,0.412,0.382,0.606,0.585
			c2.027-1.315,3.73-2.148,4.453-2.48c1.15,1.467,1.918,3.25,2.138,5.199c-0.849,0.136-2.66,0.359-4.492,0.15
			c0.153,0.283,0.288,0.575,0.42,0.87c0.396,0.03,0.79,0.049,1.165,0.049c1.234,0,2.314-0.136,2.959-0.24
			c0.004,0.109,0.018,0.215,0.018,0.325c0,2.953-1.263,5.604-3.26,7.485c-0.117,0.629-0.285,1.24-0.49,1.834
			c2.928-2.067,4.85-5.472,4.85-9.319C28.162,5.317,23.043,0.197,16.751,0.197z"></path>
        <path d="M20.85,10.147c-1.558-2.289-3.93-3.974-6.694-4.66C13.274,5.27,12.359,5.14,11.412,5.14c-1.227,0-2.407,0.2-3.515,0.56
			C5.219,6.569,2.98,8.405,1.575,10.792c-0.772,1.315-1.291,2.795-1.483,4.378C0.036,15.624,0,16.083,0,16.551
			c0,2.525,0.834,4.854,2.227,6.746c1.38,1.873,3.311,3.311,5.559,4.066c1.142,0.384,2.357,0.602,3.626,0.602
			c1.714,0,3.335-0.392,4.794-1.07c1.587-0.74,2.979-1.823,4.067-3.167c1.593-1.964,2.551-4.458,2.551-7.177
			c0-0.201-0.02-0.399-0.031-0.601C22.682,13.808,21.988,11.818,20.85,10.147z M20.479,15.951l-2.348,4.062l1.545,2.679
			c-1.039,1.396-2.419,2.521-4.021,3.249l-1.177-2.04H9.785l-1.442,2.497c-2.241-0.699-4.156-2.146-5.451-4.046l1.801-3.119
			L2.346,15.17H1.202c0.217-1.604,0.792-3.095,1.659-4.376h3.282L8.49,6.729L8.461,6.675c0.935-0.28,1.924-0.436,2.95-0.436
			c0.746,0,1.472,0.084,2.173,0.235l-0.146,0.254l2.346,4.062h4.179c1.005,1.489,1.619,3.258,1.729,5.159L20.479,15.951
			L20.479,15.951z"></path>
        <polygon points="9.064,12.351 6.718,16.415 9.064,20.479 13.757,20.479 16.104,16.415 13.757,12.351 		"></polygon>
      </g>
    </g>
    <g></g>
    <g></g>
    <g></g>
    <g></g>
    <g></g>
    <g></g>
    <g></g>
    <g></g>
    <g></g>
    <g></g>
    <g></g>
    <g></g>
    <g></g>
    <g></g>
    <g></g>
  </symbol>
  <symbol id="snap" xmlns="http://www.w3.org/2000/svg" viewBox="0 0 512 512">
    <g fill="rgb(0,0,0)">
      <path d="m460.646 10h-416.708c-18.714 0-33.938 15.521-33.938 34.6v420.122c0 19.078 15.224 34.6 33.89 34.6 3.139.025 315.346 2.492 438.5 2.679h.03a19.282 19.282 0 0 0 13.827-5.813 19.917 19.917 0 0 0 5.753-14.418l-7.421-437.793c-.33-18.735-15.553-33.977-33.933-33.977zm-416.708 12h416.708c11.879 0 21.719 9.954 21.935 22.184l6.511 384.244-96.777-99.462a33.563 33.563 0 0 0 -54.35-3.721l-45.03 53.805a21.4 21.4 0 0 1 -18.452 7.764 21.636 21.636 0 0 1 -17.013-10.959l-81.253-140.576a33.583 33.583 0 0 0 -56.1-3.578l-98.117 113.313v-300.414c0-12.462 9.841-22.6 21.938-22.6zm443.767 465.764a7.377 7.377 0 0 1 -5.282 2.236h-.011c-123.12-.187-435.288-2.654-438.474-2.679-12.1 0-21.938-10.138-21.938-22.6v-101.375l107.321-123.946.271-.337a21.585 21.585 0 0 1 36.236 2.221l81.252 140.576a33.576 33.576 0 0 0 55.057 4.892l45.03-53.805a21.57 21.57 0 0 1 35.25 2.83l.356.591 106.615 109.572.612 36.028a8.007 8.007 0 0 1 -2.295 5.796z"></path>
      <path d="m284.988 218.5c29.7 0 53.864-24.671 53.864-54.995s-24.164-54.995-53.864-54.995-53.863 24.671-53.863 54.995 24.163 54.995 53.863 54.995zm0-97.99c23.084 0 41.864 19.287 41.864 42.995s-18.78 43-41.864 43-41.863-19.288-41.863-42.995 18.775-42.996 41.863-42.996z"></path>
    </g>
  </symbol>
  <symbol version="1.1" id="settings" xmlns="http://www.w3.org/2000/svg" xmlns:xlink="http://www.w3.org/1999/xlink" x="0px" y="0px" xml:space="preserve" viewBox="0 0 485.656 485.656">
    <g>
      <g>
        <path d="M334.512,312h-200c-2.122,0-4.156,0.844-5.656,2.344l-96,96l11.312,11.312L137.824,328h187.888
			c-1.664,9.496-6.888,24-23.2,24h-88v16h88c31.64,0,40-31.4,40-48C342.512,315.582,338.93,312,334.512,312z"></path>
      </g>
    </g>
    <g>
      <g>
        <path d="M436.168,258.344c-3.124-3.123-8.188-3.123-11.312,0l-72,72l11.312,11.312l65.712-65.712
			c10.828,14.37,8.629,34.68-5.024,46.4L331.2,416H166.512c-2.122,0-4.156,0.844-5.656,2.344l-56,56l11.312,11.312L169.824,432
			h164.688c2.122,0,4.156-0.844,5.656-2.344l96-96C465.96,303.864,449.192,271.368,436.168,258.344z"></path>
      </g>
    </g>
    <g>
      <g>
        <path d="M390.512,112H361.76c-2.193-7.348-5.139-14.45-8.792-21.192l20.344-20.344c3.123-3.124,3.123-8.188,0-11.312
			L339.36,25.208c-3.124-3.123-8.188-3.123-11.312,0l-20.344,20.344c-6.741-3.658-13.843-6.607-21.192-8.8V8c0-4.418-3.582-8-8-8
			h-48c-4.418,0-8,3.582-8,8v28.752c-7.349,2.193-14.451,5.142-21.192,8.8l-20.344-20.344c-3.124-3.123-8.188-3.123-11.312,0
			l-33.952,33.944c-3.123,3.124-3.123,8.188,0,11.312l20.352,20.344c-3.655,6.742-6.604,13.844-8.8,21.192h-28.752
			c-4.418,0-8,3.582-8,8v48c0,4.418,3.582,8,8,8h28.752c2.193,7.348,5.139,14.45,8.792,21.192l-20.344,20.344
			c-3.123,3.124-3.123,8.188,0,11.312l33.952,33.952c3.174,3.001,8.138,3.001,11.312,0l20.344-20.352
			c6.742,3.655,13.844,6.604,21.192,8.8V280c0,4.418,3.582,8,8,8h48c4.418,0,8-3.582,8-8v-28.752
			c7.348-2.194,14.449-5.14,21.192-8.792l20.344,20.344c1.5,1.5,3.534,2.344,5.656,2.344s4.156-0.844,5.656-2.344l33.944-33.952
			c3.123-3.124,3.123-8.188,0-11.312l-20.344-20.344c3.655-6.742,6.604-13.844,8.8-21.192h28.752c4.418,0,8-3.582,8-8v-48
			C398.512,115.582,394.93,112,390.512,112z M382.513,160h-26.888c-3.709,0.001-6.931,2.551-7.784,6.16
			c-2.366,9.945-6.309,19.447-11.68,28.144c-1.95,3.157-1.473,7.241,1.152,9.864l19.032,19.024l-22.64,22.64l-19.024-19.04
			c-2.623-2.625-6.707-3.102-9.864-1.152c-8.695,5.378-18.197,9.325-28.144,11.688c-3.609,0.853-6.159,4.075-6.16,7.784V272h-32
			v-26.88c-0.001-3.709-2.551-6.931-6.16-7.784c-9.947-2.363-19.449-6.31-28.144-11.688c-3.157-1.95-7.241-1.473-9.864,1.152
			l-19.024,19.04l-22.64-22.64l19.032-19.04c2.625-2.623,3.102-6.707,1.152-9.864c-5.371-8.698-9.314-18.199-11.68-28.144
			c-0.853-3.609-4.075-6.159-7.784-6.16h-26.888v-32H153.4c3.709-0.001,6.931-2.551,7.784-6.16
			c2.366-9.945,6.309-19.446,11.68-28.144c1.95-3.157,1.473-7.241-1.152-9.864L152.68,64.8l22.632-22.624l19.032,19.032
			c2.623,2.625,6.707,3.102,9.864,1.152c8.693-5.379,18.196-9.323,28.144-11.68c3.609-0.853,6.159-4.075,6.16-7.784V16h32v26.896
			c0.002,3.711,2.555,6.934,6.168,7.784c9.948,2.357,19.451,6.301,28.144,11.68c3.157,1.95,7.241,1.473,9.864-1.152l19.024-19.032
			L356.345,64.8l-19.032,19.032c-2.625,2.623-3.102,6.707-1.152,9.864c5.371,8.698,9.314,18.199,11.68,28.144
			c0.853,3.609,4.075,6.159,7.784,6.16h26.888V160z"></path>
      </g>
    </g>
    <g>
      <g>
        <path d="M254.512,96c-26.51,0-48,21.49-48,48s21.491,48,48,48c26.499-0.026,47.974-21.501,48-48
			C302.512,117.49,281.022,96,254.512,96z M254.512,176c-17.673,0-32-14.327-32-32c0-17.673,14.327-32,32-32
			c17.673,0,32,14.327,32,32C286.512,161.673,272.185,176,254.512,176z"></path>
      </g>
    </g>
    <g></g>
    <g></g>
    <g></g>
    <g></g>
    <g></g>
    <g></g>
    <g></g>
    <g></g>
    <g></g>
    <g></g>
    <g></g>
    <g></g>
    <g></g>
    <g></g>
    <g></g>
  </symbol>
  <symbol id="search" xmlns="http://www.w3.org/2000/svg" viewBox="0 0 21.8 23.8">
    <defs></defs>
    <path d="M11,17.9a8.7,8.7,0,0,0,.8,4.8,1,1,0,0,0,1.2.4.8.8,0,0,0,.4-1.2,8.3,8.3,0,0,1-.7-3.8,7.6,7.6,0,0,1,15.2,1.1A7.7,7.7,0,0,1,16.1,25a.8.8,0,0,0-1.2.2.9.9,0,0,0,.2,1.3A10,10,0,0,0,19.6,28a9.3,9.3,0,0,0,6.1-1.7l5.5,6.4a.9.9,0,0,0,.6.3.7.7,0,0,0,.7-.2.9.9,0,0,0,.1-1.2L27,25.2a8.9,8.9,0,0,0,2.6-5.8A9.3,9.3,0,1,0,11,17.9Z" transform="translate(-10.9 -9.3)"></path>
  </symbol>
  <symbol version="1.1" id="quotes" xmlns="http://www.w3.org/2000/svg" xmlns:xlink="http://www.w3.org/1999/xlink" x="0px" y="0px" xml:space="preserve" viewBox="0 0 508.044 508.044">
    <g>
      <g>
        <path d="M0.108,352.536c0,66.794,54.144,120.938,120.937,120.938c66.794,0,120.938-54.144,120.938-120.938
			s-54.144-120.937-120.938-120.937c-13.727,0-26.867,2.393-39.168,6.61C109.093,82.118,230.814-18.543,117.979,64.303
			C-7.138,156.17-0.026,348.84,0.114,352.371C0.114,352.426,0.108,352.475,0.108,352.536z"></path>
        <path d="M266.169,352.536c0,66.794,54.144,120.938,120.938,120.938s120.938-54.144,120.938-120.938S453.9,231.599,387.106,231.599
			c-13.728,0-26.867,2.393-39.168,6.61C375.154,82.118,496.875-18.543,384.04,64.303C258.923,156.17,266.034,348.84,266.175,352.371
			C266.175,352.426,266.169,352.475,266.169,352.536z"></path>
      </g>
    </g>
    <g></g>
    <g></g>
    <g></g>
    <g></g>
    <g></g>
    <g></g>
    <g></g>
    <g></g>
    <g></g>
    <g></g>
    <g></g>
    <g></g>
    <g></g>
    <g></g>
    <g></g>
  </symbol>
  <symbol version="1.1" id="project" fill="#aad9e9" xmlns="http://www.w3.org/2000/svg" xmlns:xlink="http://www.w3.org/1999/xlink" x="0px" y="0px" xml:space="preserve" viewBox="0 0 511.999 511.999">
    <g>
      <g>
        <path d="M395.128,66.782H116.869c-9.22,0-16.695,7.475-16.695,16.695v200.346c0,9.22,7.475,16.695,16.695,16.695h278.258
			c9.22,0,16.695-7.475,16.695-16.695V83.478C411.823,74.257,404.348,66.782,395.128,66.782z M205.912,267.128h-72.347V100.173
			h72.347V267.128z M378.432,267.128H239.303v-66.782h139.129V267.128z M378.432,166.955H239.303v-66.782h139.129V166.955z"></path>
      </g>
    </g>
    <g>
      <g>
        <path d="M495.303,333.91h-16.695V33.391h16.693c9.22,0,16.695-7.475,16.695-16.696c0-9.22-7.475-16.695-16.695-16.695
			C485.127,0,32.05,0,16.696,0C7.476,0,0.001,7.475,0.001,16.695c0,9.22,7.475,16.696,16.695,16.696h16.695V333.91H16.696
			c-9.22,0-16.695,7.475-16.695,16.695c0,9.22,7.475,16.695,16.695,16.695c8.861,0,210.517,0,222.607,0v82.574l-88.757,29.586
			c-8.747,2.916-13.475,12.371-10.559,21.119c2.919,8.756,12.38,13.472,21.119,10.559L256,479.507l94.894,31.631
			c8.745,2.914,18.201-1.81,21.119-10.559c2.916-8.747-1.812-18.203-10.559-21.119l-88.757-29.586v-82.574
			c12.104,0,213.747,0,222.607,0c9.22,0,16.696-7.475,16.696-16.695C511.999,341.385,504.523,333.91,495.303,333.91z
			 M445.214,333.91H66.783V33.391h378.431V333.91z"></path>
      </g>
    </g>
    <g></g>
    <g></g>
    <g></g>
    <g></g>
    <g></g>
    <g></g>
    <g></g>
    <g></g>
    <g></g>
    <g></g>
    <g></g>
    <g></g>
    <g></g>
    <g></g>
    <g></g>
  </symbol>
  <symbol version="1.1" xmlns="http://www.w3.org/2000/svg" xmlns:xlink="http://www.w3.org/1999/xlink" viewBox="0 0 24 24" id="presenter" >
    <title>ic_fluent_presenter_24_regular</title>
    <desc>Created with Sketch.</desc>
    <g id="ðŸ”-Product-Icons" stroke="none" stroke-width="1" fill="none" fill-rule="evenodd">
      <g id="ic_fluent_presenter_24_regular" fill="#aad9e9" fill-rule="nonzero" >
        <path d="M20.2444559,12.9970892 C20.9532475,12.9970892 21.2665137,13.8895089 20.7132369,14.3325329 L15.9953641,18.1102639 L15.9953641,19.754591 C15.9953641,20.9972317 14.9880048,22.004591 13.7453641,22.004591 L10.25,22.004591 C9.00735931,22.004591 8,20.9972317 8,19.754591 L8,18.1103457 L3.28041452,14.332616 C2.72700718,13.8896484 3.04023351,12.9970892 3.74909172,12.9970892 L20.2444559,12.9970892 Z M18.1078871,14.4970892 L5.88626655,14.4970892 L9.21867721,17.1644732 C9.39649606,17.3068059 9.5,17.5222322 9.5,17.75 L9.5,19.754591 C9.5,20.1688046 9.83578644,20.504591 10.25,20.504591 L13.7453641,20.504591 C14.1595777,20.504591 14.4953641,20.1688046 14.4953641,19.754591 L14.4953641,17.75 C14.4953641,17.5222788 14.5988259,17.3068914 14.7765832,17.1645562 L18.1078871,14.4970892 Z M8.75,9 L15.244703,9 C16.1628764,9 16.9158953,9.70711027 16.9889018,10.6064728 L16.994703,10.75 L16.994703,12 L15.494703,12 L15.494703,10.75 C15.494703,10.6316533 15.4124696,10.5325132 15.3020257,10.5066027 L15.244703,10.5 L8.75,10.5 C8.63165327,10.5 8.53251318,10.5822334 8.50660268,10.6926773 L8.5,10.75 L8.5,12 L7,12 L7,10.75 C7,9.8318266 7.70711027,9.07880766 8.60647279,9.0058012 L8.75,9 L15.244703,9 L8.75,9 Z M12,2.00046154 C13.6568542,2.00046154 15,3.34360729 15,5.00046154 C15,6.65731579 13.6568542,8.00046154 12,8.00046154 C10.3431458,8.00046154 9,6.65731579 9,5.00046154 C9,3.34360729 10.3431458,2.00046154 12,2.00046154 Z M12,3.50046154 C11.1715729,3.50046154 10.5,4.17203441 10.5,5.00046154 C10.5,5.82888866 11.1715729,6.50046154 12,6.50046154 C12.8284271,6.50046154 13.5,5.82888866 13.5,5.00046154 C13.5,4.17203441 12.8284271,3.50046154 12,3.50046154 Z" id="ðŸŽ¨-Color"></path>
      </g>
    </g>
  </symbol>
  <symbol version="1.1" id="podium" fill="#aad9e9" xmlns="http://www.w3.org/2000/svg" xmlns:xlink="http://www.w3.org/1999/xlink" x="0px" y="0px" xml:space="preserve" viewBox="0 0 512 512">
    <g>
      <g>
        <path d="M419.404,130.723h-78.979V86.007c12.558-3.567,21.787-15.13,21.787-28.816V29.957C362.213,13.438,348.773,0,332.255,0
			c-16.518,0-29.957,13.438-29.957,29.957v27.234c0,13.686,9.229,25.249,21.787,28.816v44.716H264.17V86.007
			c12.558-3.567,21.787-15.13,21.787-28.816V29.957C285.957,13.438,272.518,0,256,0s-29.957,13.438-29.957,29.957v27.234
			c0,13.686,9.229,25.249,21.787,28.816v44.716h-59.915V86.007c12.558-3.567,21.787-15.13,21.787-28.816V29.957
			C209.702,13.438,196.263,0,179.745,0s-29.957,13.438-29.957,29.957v27.234c0,13.686,9.229,25.249,21.787,28.816v44.716H92.596
			c-4.513,0-8.17,3.658-8.17,8.17v32.681c0,4.512,3.657,8.17,8.17,8.17h24.511v57.191c0,4.512,3.657,8.17,8.17,8.17H128v217.872
			h-2.723c-4.513,0-8.17,3.658-8.17,8.17v24.511h-2.723c-4.513,0-8.17,3.658-8.17,8.17s3.657,8.17,8.17,8.17h283.234
			c4.513,0,8.17-3.658,8.17-8.17s-3.657-8.17-8.17-8.17h-2.723v-24.511c0-4.512-3.657-8.17-8.17-8.17H384V245.106h2.723
			c4.513,0,8.17-3.658,8.17-8.17v-57.191h24.511c4.513,0,8.17-3.658,8.17-8.17v-32.681
			C427.574,134.381,423.917,130.723,419.404,130.723z M318.638,57.192V29.957c0-7.509,6.108-13.617,13.617-13.617
			s13.617,6.108,13.617,13.617v27.234c0,7.509-6.108,13.617-13.617,13.617S318.638,64.7,318.638,57.192z M242.383,57.192V29.957
			c0-7.509,6.108-13.617,13.617-13.617s13.617,6.108,13.617,13.617v27.234c0,7.509-6.108,13.617-13.617,13.617
			S242.383,64.7,242.383,57.192z M166.128,57.192V29.957c0-7.509,6.108-13.617,13.617-13.617s13.617,6.108,13.617,13.617v27.234
			c0,7.509-6.108,13.617-13.617,13.617S166.128,64.7,166.128,57.192z M378.553,495.66H133.447v-16.34h177.021
			c4.513,0,8.17-3.658,8.17-8.17s-3.657-8.17-8.17-8.17H144.34V245.106H367.66v217.872h-24.511c-4.513,0-8.17,3.658-8.17,8.17
			s3.657,8.17,8.17,8.17h35.404V495.66z M378.553,228.766H133.447v-49.021h245.106V228.766z M411.234,163.404H100.766v-16.34
			h310.468V163.404z"></path>
      </g>
    </g>
    <g>
      <g>
        <path d="M354.043,196.085H157.957c-4.513,0-8.17,3.658-8.17,8.17s3.657,8.17,8.17,8.17h196.085c4.513,0,8.17-3.658,8.17-8.17
			S358.556,196.085,354.043,196.085z"></path>
      </g>
    </g>
    <g>
      <g>
        <path d="M343.149,261.447H168.851c-4.513,0-8.17,3.658-8.17,8.17v68.085c0,4.512,3.657,8.17,8.17,8.17s8.17-3.658,8.17-8.17
			v-59.915h157.957v152.511H177.021v-59.915c0-4.512-3.657-8.17-8.17-8.17s-8.17,3.658-8.17,8.17v68.085
			c0,4.512,3.657,8.17,8.17,8.17h174.298c4.513,0,8.17-3.658,8.17-8.17V269.617C351.319,265.105,347.662,261.447,343.149,261.447z"></path>
      </g>
    </g>
    <g></g>
    <g></g>
    <g></g>
    <g></g>
    <g></g>
    <g></g>
    <g></g>
    <g></g>
    <g></g>
    <g></g>
    <g></g>
    <g></g>
    <g></g>
    <g></g>
    <g></g>
  </symbol>
  <symbol version="1.1" id="piano" fill="#aad9e9" xmlns="http://www.w3.org/2000/svg" xmlns:xlink="http://www.w3.org/1999/xlink" x="0px" y="0px" xml:space="preserve" viewBox="0 0 485.383 485.383">
    <path d="M447.215,283.222c-21.899-19.138-49.892-29.422-74.589-38.496l-2.509-0.922c-43.025-15.842-80.184-29.523-89.925-82.252
	c-6.795-36.618-22.684-70.438-44.737-95.228c-25.798-28.999-58.723-44.326-95.215-44.326C62.911,21.998,0,83.787,0,159.735v216.155
	v79.994c0,1.989,0.79,3.897,2.196,5.303c1.407,1.407,3.314,2.197,5.304,2.197l470.383-0.001c4.143,0,7.5-3.358,7.5-7.5v-79.993
	C485.383,335.978,472.898,305.667,447.215,283.222z M15,159.735C15,92.058,71.183,36.998,140.24,36.998
	c70.172,0,113.446,63.932,125.203,127.285c11.292,61.123,56.13,77.632,99.537,93.614l2.473,0.909
	c46.689,17.153,99.405,36.516,102.761,109.585H15V159.735z M93.396,383.391h24.199v43.19c0,4.142,3.357,7.5,7.5,7.5
	c4.143,0,7.5-3.358,7.5-7.5v-43.19h24.199v43.19c0,4.142,3.357,7.5,7.5,7.5c4.143,0,7.5-3.358,7.5-7.5v-43.19h24.197v64.91
	c0,0.028,0.004,0.056,0.004,0.083l-102.603,0c0-0.028,0.004-0.056,0.004-0.084V383.391z M210.992,448.301v-64.91h24.199v43.19
	c0,4.142,3.357,7.5,7.5,7.5c4.143,0,7.5-3.358,7.5-7.5v-43.19h24.199v64.91c0,0.028,0.004,0.055,0.004,0.083h-63.406
	C210.988,448.356,210.992,448.329,210.992,448.301z M289.391,448.301v-64.91h24.197v43.19c0,4.142,3.357,7.5,7.5,7.5
	c4.143,0,7.5-3.358,7.5-7.5v-43.19h24.199v43.19c0,4.142,3.357,7.5,7.5,7.5c4.143,0,7.5-3.358,7.5-7.5v-43.19h24.199v64.91
	c0,0.028,0.004,0.055,0.004,0.083l-102.604,0.001C289.387,448.356,289.391,448.329,289.391,448.301z M15,383.391h24.197v43.19
	c0,4.142,3.357,7.5,7.5,7.5c4.143,0,7.5-3.358,7.5-7.5v-43.19h24.199v64.91c0,0.028,0.004,0.056,0.004,0.084H15V383.391z
	 M470.383,448.384h-63.4c0-0.028,0.004-0.055,0.004-0.083v-64.91h24.199v43.19c0,4.142,3.358,7.5,7.5,7.5c4.143,0,7.5-3.358,7.5-7.5
	v-43.19h24.197V448.384z"></path>
    <g></g>
    <g></g>
    <g></g>
    <g></g>
    <g></g>
    <g></g>
    <g></g>
    <g></g>
    <g></g>
    <g></g>
    <g></g>
    <g></g>
    <g></g>
    <g></g>
    <g></g>
  </symbol>
  <symbol version="1.1" id="phone" xmlns="http://www.w3.org/2000/svg" xmlns:xlink="http://www.w3.org/1999/xlink" x="0px" y="0px" xml:space="preserve" viewBox="0 0 60.002 60.002">
    <g>
      <path d="M59.002,37.992c-3.69,0-6.693-3.003-6.693-6.693c0-0.553-0.447-1-1-1s-1,0.447-1,1c0,4.794,3.899,8.693,8.693,8.693
		c0.553,0,1-0.447,1-1S59.554,37.992,59.002,37.992z"></path>
      <path d="M58.256,35.65c0.553,0,1-0.447,1-1s-0.447-1-1-1c-0.886,0-1.605-0.72-1.605-1.605c0-0.553-0.447-1-1-1s-1,0.447-1,1
		C54.65,34.033,56.267,35.65,58.256,35.65z"></path>
      <path d="M20.002,2.992c3.691,0,6.693,3.003,6.693,6.693c0,0.553,0.448,1,1,1s1-0.447,1-1c0-4.794-3.9-8.693-8.693-8.693
		c-0.552,0-1,0.447-1,1S19.449,2.992,20.002,2.992z"></path>
      <path d="M19.748,6.334c0,0.553,0.448,1,1,1c0.885,0,1.604,0.72,1.604,1.605c0,0.553,0.448,1,1,1s1-0.447,1-1
		c0-1.988-1.617-3.605-3.604-3.605C20.196,5.334,19.748,5.781,19.748,6.334z"></path>
      <path d="M44.076,37.889c-1.276-0.728-2.597-0.958-3.721-0.646c-0.844,0.234-1.532,0.768-1.996,1.546
		c-1.02,1.22-2.286,2.646-2.592,2.867c-2.367,1.604-4.25,1.415-6.294-0.629L17.987,29.542c-2.045-2.045-2.233-3.928-0.631-6.291
		c0.224-0.31,1.65-1.575,2.87-2.596c0.778-0.464,1.312-1.152,1.546-1.996c0.311-1.123,0.082-2.444-0.652-3.731
		c-0.173-0.296-4.291-7.27-8.085-9.277c-1.926-1.019-4.255-0.669-5.796,0.872L4.7,9.059c-4.014,4.014-5.467,8.563-4.321,13.52
		c0.956,4.132,3.742,8.529,8.282,13.068l14.705,14.706c5.762,5.762,11.258,8.656,16.298,8.656c3.701,0,7.157-1.562,10.291-4.695
		l2.537-2.537c1.541-1.541,1.892-3.87,0.872-5.796C51.356,42.186,44.383,38.069,44.076,37.889z M51.078,50.363L48.541,52.9
		c-6.569,6.567-14.563,5.235-23.76-3.961L10.075,34.233c-4.271-4.271-6.877-8.344-7.747-12.104
		c-0.995-4.301,0.244-8.112,3.786-11.655l2.537-2.537c0.567-0.566,1.313-0.862,2.07-0.862c0.467,0,0.939,0.112,1.376,0.344
		c3.293,1.743,7.256,8.454,7.29,8.511c0.449,0.787,0.62,1.608,0.457,2.196c-0.1,0.36-0.324,0.634-0.684,0.836l-0.15,0.104
		c-0.853,0.712-2.883,2.434-3.308,3.061c-0.612,0.904-1.018,1.792-1.231,2.665c-0.711-1.418-1.286-3.06-1.475-4.881
		c-0.057-0.548-0.549-0.935-1.098-0.892c-0.549,0.058-0.949,0.549-0.892,1.099c0.722,6.953,6.129,11.479,6.359,11.668
		c0.025,0.02,0.054,0.028,0.08,0.045l10.613,10.613c0.045,0.045,0.092,0.085,0.137,0.129c0.035,0.051,0.058,0.108,0.104,0.154
		c0.189,0.187,4.704,4.567,11.599,5.283c0.035,0.003,0.07,0.005,0.104,0.005c0.506,0,0.94-0.383,0.994-0.896
		c0.057-0.55-0.342-1.041-0.892-1.099c-2.114-0.219-3.987-0.839-5.548-1.558c0.765-0.23,1.543-0.612,2.332-1.146
		c0.628-0.426,2.35-2.455,3.061-3.308l0.104-0.151c0.202-0.359,0.476-0.583,0.836-0.684c0.588-0.159,1.409,0.008,2.186,0.45
		c0.067,0.04,6.778,4.003,8.521,7.296C52.202,48.062,51.994,49.447,51.078,50.363z"></path>
    </g>
    <g></g>
    <g></g>
    <g></g>
    <g></g>
    <g></g>
    <g></g>
    <g></g>
    <g></g>
    <g></g>
    <g></g>
    <g></g>
    <g></g>
    <g></g>
    <g></g>
    <g></g>
  </symbol>
  <symbol id="menu" enable-background="new 0 0 24 24" xmlns="http://www.w3.org/2000/svg" viewBox="0 0 24 24">
    <g>
      <path d="m21.5 24h-19c-1.379 0-2.5-1.122-2.5-2.5v-19c0-1.378 1.121-2.5 2.5-2.5h19c1.379 0 2.5 1.122 2.5 2.5v19c0 1.378-1.121 2.5-2.5 2.5zm-19-23c-.827 0-1.5.673-1.5 1.5v19c0 .827.673 1.5 1.5 1.5h19c.827 0 1.5-.673 1.5-1.5v-19c0-.827-.673-1.5-1.5-1.5z"></path>
    </g>
    <g>
      <path d="m16.5 8h-9c-.276 0-.5-.224-.5-.5s.224-.5.5-.5h9c.276 0 .5.224.5.5s-.224.5-.5.5z"></path>
    </g>
    <g>
      <path d="m16.5 12.5h-9c-.276 0-.5-.224-.5-.5s.224-.5.5-.5h9c.276 0 .5.224.5.5s-.224.5-.5.5z"></path>
    </g>
    <g>
      <path d="m16.5 17h-9c-.276 0-.5-.224-.5-.5s.224-.5.5-.5h9c.276 0 .5.224.5.5s-.224.5-.5.5z"></path>
    </g>
  </symbol>
  <symbol xmlns="http://www.w3.org/2000/svg" viewBox="0 0 50 2" id="line">
    <path fill="#63c3ef" d="M0 0h50v2H0z"></path>
  </symbol>
  <symbol version="1.1" id="internet" xmlns="http://www.w3.org/2000/svg" xmlns:xlink="http://www.w3.org/1999/xlink" x="0px" y="0px" xml:space="preserve" viewBox="0 0 58 58">
    <path d="M50.688,48.222C55.232,43.101,58,36.369,58,29c0-7.667-2.996-14.643-7.872-19.834c0,0,0-0.001,0-0.001
	c-0.004-0.006-0.01-0.008-0.013-0.013c-5.079-5.399-12.195-8.855-20.11-9.126l-0.001-0.001L29.439,0.01C29.293,0.005,29.147,0,29,0
	s-0.293,0.005-0.439,0.01l-0.563,0.015l-0.001,0.001c-7.915,0.271-15.031,3.727-20.11,9.126c-0.004,0.005-0.01,0.007-0.013,0.013
	c0,0,0,0.001-0.001,0.002C2.996,14.357,0,21.333,0,29c0,7.369,2.768,14.101,7.312,19.222c0.006,0.009,0.006,0.019,0.013,0.028
	c0.018,0.025,0.044,0.037,0.063,0.06c5.106,5.708,12.432,9.385,20.608,9.665l0.001,0.001l0.563,0.015C28.707,57.995,28.853,58,29,58
	s0.293-0.005,0.439-0.01l0.563-0.015l0.001-0.001c8.185-0.281,15.519-3.965,20.625-9.685c0.013-0.017,0.034-0.022,0.046-0.04
	C50.682,48.241,50.682,48.231,50.688,48.222z M2.025,30h12.003c0.113,4.239,0.941,8.358,2.415,12.217
	c-2.844,1.029-5.563,2.409-8.111,4.131C4.585,41.891,2.253,36.21,2.025,30z M8.878,11.023c2.488,1.618,5.137,2.914,7.9,3.882
	C15.086,19.012,14.15,23.44,14.028,28H2.025C2.264,21.493,4.812,15.568,8.878,11.023z M55.975,28H43.972
	c-0.122-4.56-1.058-8.988-2.75-13.095c2.763-0.968,5.412-2.264,7.9-3.882C53.188,15.568,55.736,21.493,55.975,28z M28,14.963
	c-2.891-0.082-5.729-0.513-8.471-1.283C21.556,9.522,24.418,5.769,28,2.644V14.963z M28,16.963V28H16.028
	c0.123-4.348,1.035-8.565,2.666-12.475C21.7,16.396,24.821,16.878,28,16.963z M30,16.963c3.179-0.085,6.3-0.566,9.307-1.438
	c1.631,3.91,2.543,8.127,2.666,12.475H30V16.963z M30,14.963V2.644c3.582,3.125,6.444,6.878,8.471,11.036
	C35.729,14.45,32.891,14.881,30,14.963z M40.409,13.072c-1.921-4.025-4.587-7.692-7.888-10.835
	c5.856,0.766,11.125,3.414,15.183,7.318C45.4,11.017,42.956,12.193,40.409,13.072z M17.591,13.072
	c-2.547-0.879-4.991-2.055-7.294-3.517c4.057-3.904,9.327-6.552,15.183-7.318C22.178,5.38,19.512,9.047,17.591,13.072z M16.028,30
	H28v10.038c-3.307,0.088-6.547,0.604-9.661,1.541C16.932,37.924,16.141,34.019,16.028,30z M28,42.038v13.318
	c-3.834-3.345-6.84-7.409-8.884-11.917C21.983,42.594,24.961,42.124,28,42.038z M30,55.356V42.038
	c3.039,0.085,6.017,0.556,8.884,1.4C36.84,47.947,33.834,52.011,30,55.356z M30,40.038V30h11.972
	c-0.113,4.019-0.904,7.924-2.312,11.58C36.547,40.642,33.307,40.126,30,40.038z M43.972,30h12.003
	c-0.228,6.21-2.559,11.891-6.307,16.348c-2.548-1.722-5.267-3.102-8.111-4.131C43.032,38.358,43.859,34.239,43.972,30z
	 M9.691,47.846c2.366-1.572,4.885-2.836,7.517-3.781c1.945,4.36,4.737,8.333,8.271,11.698C19.328,54.958,13.823,52.078,9.691,47.846
	z M32.521,55.763c3.534-3.364,6.326-7.337,8.271-11.698c2.632,0.945,5.15,2.209,7.517,3.781
	C44.177,52.078,38.672,54.958,32.521,55.763z"></path>
    <g></g>
    <g></g>
    <g></g>
    <g></g>
    <g></g>
    <g></g>
    <g></g>
    <g></g>
    <g></g>
    <g></g>
    <g></g>
    <g></g>
    <g></g>
    <g></g>
    <g></g>
  </symbol>
  <symbol version="1.1" id="google" xmlns="http://www.w3.org/2000/svg" xmlns:xlink="http://www.w3.org/1999/xlink" x="0px" y="0px" xml:space="preserve" viewBox="0 0 314.652 314.652">
    <g>
      <path d="M157.326,0C70.576,0,0,70.576,0,157.326s70.576,157.326,157.326,157.326s157.326-70.576,157.326-157.326
		S244.076,0,157.326,0z M157.326,296.652C80.501,296.652,18,234.15,18,157.326S80.501,18,157.326,18s139.326,62.502,139.326,139.326
		S234.151,296.652,157.326,296.652z"></path>
      <path d="M225.66,148.326h-61.584c-4.971,0-9,4.029-9,9s4.029,9,9,9h51.903c-4.35,28.461-28.995,50.333-58.652,50.333
		c-32.717,0-59.333-26.616-59.333-59.333s26.617-59.333,59.333-59.333c14.969,0,29.263,5.59,40.249,15.738
		c3.653,3.374,9.346,3.148,12.718-0.503c3.373-3.651,3.147-9.346-0.503-12.718c-14.322-13.231-32.954-20.518-52.464-20.518
		c-42.642,0-77.333,34.691-77.333,77.333s34.691,77.333,77.333,77.333s77.333-34.691,77.333-77.333
		C234.66,152.355,230.63,148.326,225.66,148.326z"></path>
    </g>
    <g></g>
    <g></g>
    <g></g>
    <g></g>
    <g></g>
    <g></g>
    <g></g>
    <g></g>
    <g></g>
    <g></g>
    <g></g>
    <g></g>
    <g></g>
    <g></g>
    <g></g>
  </symbol>
  <symbol version="1.1" xmlns="http://www.w3.org/2000/svg" xmlns:xlink="http://www.w3.org/1999/xlink" viewBox="0 0 24 24" id="github">
    <title>github</title>
    <desc>Created with sketchtool.</desc>
    <g id="brand" stroke="none" stroke-width="1" fill="none" fill-rule="evenodd">
      <g id="github" fill="#ffffff">
        <path d="M12,2 C6.475,2 2,6.475 2,12 C2,16.425 4.8625,20.1625 8.8375,21.4875 C9.3375,21.575 9.525,21.275 9.525,21.0125 C9.525,20.775 9.5125,19.9875 9.5125,19.15 C7,19.6125 6.35,18.5375 6.15,17.975 C6.0375,17.6875 5.55,16.8 5.125,16.5625 C4.775,16.375 4.275,15.9125 5.1125,15.9 C5.9,15.8875 6.4625,16.625 6.65,16.925 C7.55,18.4375 8.9875,18.0125 9.5625,17.75 C9.65,17.1 9.9125,16.6625 10.2,16.4125 C7.975,16.1625 5.65,15.3 5.65,11.475 C5.65,10.3875 6.0375,9.4875 6.675,8.7875 C6.575,8.5375 6.225,7.5125 6.775,6.1375 C6.775,6.1375 7.6125,5.875 9.525,7.1625 C10.325,6.9375 11.175,6.825 12.025,6.825 C12.875,6.825 13.725,6.9375 14.525,7.1625 C16.4375,5.8625 17.275,6.1375 17.275,6.1375 C17.825,7.5125 17.475,8.5375 17.375,8.7875 C18.0125,9.4875 18.4,10.375 18.4,11.475 C18.4,15.3125 16.0625,16.1625 13.8375,16.4125 C14.2,16.725 14.5125,17.325 14.5125,18.2625 C14.5125,19.6 14.5,20.675 14.5,21.0125 C14.5,21.275 14.6875,21.5875 15.1875,21.4875 C19.1375,20.1625 22,16.4125 22,12 C22,6.475 17.525,2 12,2 L12,2 Z" id="Shape"></path>
      </g>
    </g>
  </symbol>
  <symbol version="1.1" id="email" xmlns="http://www.w3.org/2000/svg" xmlns:xlink="http://www.w3.org/1999/xlink" x="0px" y="0px" xml:space="preserve" viewBox="0 0 75.294 75.294">
    <g>
      <path d="M66.097,12.089h-56.9C4.126,12.089,0,16.215,0,21.286v32.722c0,5.071,4.126,9.197,9.197,9.197h56.9
		c5.071,0,9.197-4.126,9.197-9.197V21.287C75.295,16.215,71.169,12.089,66.097,12.089z M61.603,18.089L37.647,33.523L13.691,18.089
		H61.603z M66.097,57.206h-56.9C7.434,57.206,6,55.771,6,54.009V21.457l29.796,19.16c0.04,0.025,0.083,0.042,0.124,0.065
		c0.043,0.024,0.087,0.047,0.131,0.069c0.231,0.119,0.469,0.215,0.712,0.278c0.025,0.007,0.05,0.01,0.075,0.016
		c0.267,0.063,0.537,0.102,0.807,0.102c0.001,0,0.002,0,0.002,0c0.002,0,0.003,0,0.004,0c0.27,0,0.54-0.038,0.807-0.102
		c0.025-0.006,0.05-0.009,0.075-0.016c0.243-0.063,0.48-0.159,0.712-0.278c0.044-0.022,0.088-0.045,0.131-0.069
		c0.041-0.023,0.084-0.04,0.124-0.065l29.796-19.16v32.551C69.295,55.771,67.86,57.206,66.097,57.206z"></path>
    </g>
    <g></g>
    <g></g>
    <g></g>
    <g></g>
    <g></g>
    <g></g>
    <g></g>
    <g></g>
    <g></g>
    <g></g>
    <g></g>
    <g></g>
    <g></g>
    <g></g>
    <g></g>
  </symbol>
  <symbol version="1.1" id="computer" xmlns="http://www.w3.org/2000/svg" xmlns:xlink="http://www.w3.org/1999/xlink" x="0px" y="0px" xml:space="preserve" viewBox="0 0 389.981 389.981">
    <g>
      <path d="M145.407,248.988l-2.775,26.209c-0.224,2.115,0.46,4.225,1.883,5.806c1.422,1.581,3.449,2.483,5.576,2.483h79.301
		c2.126,0,4.153-0.903,5.576-2.483c1.422-1.581,2.106-3.691,1.883-5.806l-2.775-26.209h98.777c15.374,0,27.881-12.507,27.881-27.881
		V27.881C360.733,12.507,348.225,0,332.852,0H40.63C25.256,0,12.749,12.507,12.749,27.881v193.226
		c0,15.374,12.507,27.881,27.881,27.881H145.407z M221.055,268.487h-62.629l2.064-19.499h58.5L221.055,268.487z M40.63,15h292.222
		c7.103,0,12.881,5.778,12.881,12.881V197.99H27.749V27.881C27.749,20.778,33.527,15,40.63,15z M27.749,221.107v-8.117h317.983
		v8.117c0,7.103-5.778,12.881-12.881,12.881H40.63C33.527,233.988,27.749,228.21,27.749,221.107z"></path>
      <path d="M332.645,333.876c1.36-2.24,1.453-5.027,0.244-7.352l-14.813-28.499c-1.291-2.483-3.856-4.041-6.655-4.041H62.061
		c-2.798,0-5.364,1.558-6.655,4.041l-14.813,28.499c-1.208,2.325-1.116,5.112,0.244,7.352s3.791,3.607,6.411,3.607h278.986
		C328.854,337.484,331.285,336.116,332.645,333.876z M59.599,322.484l7.016-13.499h240.251l7.017,13.499H59.599z"></path>
      <path d="M345.733,350.982h-12c-17.368,0-31.499,14.13-31.499,31.499c0,4.142,3.358,7.5,7.5,7.5h59.997c4.142,0,7.5-3.358,7.5-7.5
		C377.232,365.113,363.102,350.982,345.733,350.982z M319.04,374.981c2.735-5.337,8.295-8.999,14.693-8.999h12
		c6.398,0,11.958,3.662,14.694,8.999H319.04z"></path>
    </g>
    <g></g>
    <g></g>
    <g></g>
    <g></g>
    <g></g>
    <g></g>
    <g></g>
    <g></g>
    <g></g>
    <g></g>
    <g></g>
    <g></g>
    <g></g>
    <g></g>
    <g></g>
  </symbol>
  <symbol version="1.1" id="code" fill="#aad9e9" xmlns="http://www.w3.org/2000/svg" xmlns:xlink="http://www.w3.org/1999/xlink" x="0px" y="0px" xml:space="preserve" viewBox="0 0 392.186 392.186">
    <g>
      <g>
        <g>
          <path d="M368.62,17.951H23.568C10.57,17.951,0,28.524,0,41.52v309.146c0,12.996,10.57,23.568,23.568,23.568h345.053
				c12.994,0,23.564-10.572,23.564-23.568V41.52C392.188,28.525,381.614,17.951,368.62,17.951z M297.56,57.528
				c0-4.806,3.896-8.703,8.701-8.703h8.703c4.808,0,8.701,3.896,8.701,8.703v9.863c0,4.806-3.896,8.702-8.701,8.702h-8.703
				c-4.805,0-8.701-3.896-8.701-8.702V57.528z M257.093,57.528c0-4.806,3.898-8.703,8.703-8.703h8.701
				c4.805,0,8.703,3.896,8.703,8.703v9.863c0,4.806-3.898,8.702-8.703,8.702h-8.701c-4.805,0-8.703-3.896-8.703-8.702V57.528z
				 M363.903,345.951H28.282V102.235h335.621V345.951L363.903,345.951z M364.132,67.391c0,4.806-3.896,8.702-8.701,8.702h-8.703
				c-4.809,0-8.702-3.896-8.702-8.702v-9.863c0-4.806,3.896-8.703,8.702-8.703h8.703c4.806,0,8.701,3.896,8.701,8.703V67.391z"></path>
          <path d="M84.185,233.284l63.084,29.336c1.631,0.755,3.367,1.138,5.162,1.138c2.338,0,4.617-0.664,6.598-1.924
				c3.547-2.267,5.666-6.13,5.666-10.334v-0.322c0-4.752-2.785-9.116-7.096-11.118l-39.455-18.332l39.455-18.334
				c4.311-2.004,7.096-6.367,7.096-11.117v-0.319c0-4.21-2.119-8.075-5.666-10.334c-1.961-1.253-4.246-1.916-6.605-1.916
				c-1.779,0-3.563,0.391-5.16,1.133l-63.08,29.333c-4.307,2.004-7.09,6.369-7.09,11.117v0.877
				C77.093,226.909,79.874,231.272,84.185,233.284z"></path>
          <path d="M165.257,293.036c2.301,3.149,6.002,5.03,9.9,5.03h0.316c5.352,0,10.041-3.426,11.672-8.517L228.7,160.788
				c1.192-3.716,0.531-7.818-1.771-10.973c-2.301-3.15-6.002-5.03-9.901-5.03h-0.315c-5.354,0-10.048,3.425-11.679,8.516
				l-41.559,128.771C162.292,285.793,162.958,289.889,165.257,293.036z"></path>
          <path d="M227.49,192.276c0,4.745,2.783,9.109,7.095,11.123l39.455,18.329l-39.455,18.33c-4.31,2.004-7.095,6.368-7.095,11.118
				v0.322c0,4.205,2.117,8.068,5.668,10.336c1.974,1.258,4.254,1.924,6.595,1.924c1.793,0,3.528-0.383,5.17-1.142l63.08-29.335
				c4.307-2.009,7.09-6.372,7.09-11.115v-0.877c0-4.748-2.783-9.113-7.094-11.117l-63.08-29.333
				c-1.591-0.74-3.373-1.131-5.152-1.131c-2.355,0-4.643,0.661-6.604,1.912c-3.551,2.263-5.67,6.127-5.67,10.337v0.318H227.49
				L227.49,192.276z"></path>
        </g>
      </g>
    </g>
    <g></g>
    <g></g>
    <g></g>
    <g></g>
    <g></g>
    <g></g>
    <g></g>
    <g></g>
    <g></g>
    <g></g>
    <g></g>
    <g></g>
    <g></g>
    <g></g>
    <g></g>
  </symbol>
  <symbol version="1.1" id="clock" xmlns="http://www.w3.org/2000/svg" xmlns:xlink="http://www.w3.org/1999/xlink" x="0px" y="0px" xml:space="preserve" viewBox="0 0 501.656 501.656">
    <g>
      <g>
        <path d="M342.512,328h-200c-2.122,0-4.156,0.844-5.656,2.344l-96,96l11.312,11.312L145.824,344h187.888
			c-1.664,9.496-6.888,24-23.2,24h-88v16h88c31.64,0,40-31.4,40-48C350.512,331.582,346.93,328,342.512,328z"></path>
      </g>
    </g>
    <g>
      <g>
        <path d="M444.168,274.344c-3.124-3.123-8.188-3.123-11.312,0l-72,72l11.312,11.312l65.712-65.712
			c10.828,14.37,8.629,34.68-5.024,46.4L339.2,432H174.512c-2.122,0-4.156,0.844-5.656,2.344l-56,56l11.312,11.312L177.824,448
			h164.688c2.122,0,4.156-0.844,5.656-2.344l96-96C473.96,319.864,457.192,287.368,444.168,274.344z"></path>
      </g>
    </g>
    <g>
      <g>
        <path d="M262.512,0c-83.947,0-152,68.053-152,152s68.053,152,152,152c83.909-0.093,151.907-68.091,152-152
			C414.512,68.053,346.459,0,262.512,0z M262.512,288c-75.111,0-136-60.889-136-136s60.89-136,136-136
			c75.076,0.084,135.916,60.924,136,136C398.512,227.111,337.623,288,262.512,288z"></path>
      </g>
    </g>
    <g>
      <g>
        <path d="M262.512,40c-61.856,0-112,50.144-112,112s50.145,112,112,112c61.828-0.066,111.934-50.172,112-112
			C374.512,90.144,324.368,40,262.512,40z M270.512,247.666V224h-16v23.666c-46.637-3.848-83.817-41.028-87.666-87.666h23.666v-16
			h-23.666c3.849-46.637,41.029-83.817,87.666-87.666V80h16V56.343c46.612,3.893,83.764,41.045,87.657,87.657h-23.657v16h23.666
			C354.33,206.637,317.15,243.817,270.512,247.666z"></path>
      </g>
    </g>
    <g>
      <g>
        <path d="M284.18,162.33c1.494-3.129,2.333-6.631,2.333-10.33c0-10.449-6.68-19.334-16-22.629V96h-16v33.371
			c-9.32,3.295-16,12.18-16,22.629c-0.001,13.255,10.745,24,23.999,24c3.711,0,7.225-0.843,10.362-2.347l23.977,23.977
			l11.314-11.314L284.18,162.33z M262.512,160c-4.418,0-8-3.582-8-8c0-4.418,3.582-8,8-8c4.418,0,8,3.582,8,8
			C270.512,156.418,266.93,160,262.512,160z"></path>
      </g>
    </g>
    <g></g>
    <g></g>
    <g></g>
    <g></g>
    <g></g>
    <g></g>
    <g></g>
    <g></g>
    <g></g>
    <g></g>
    <g></g>
    <g></g>
    <g></g>
    <g></g>
    <g></g>
  </symbol>
  <symbol version="1.1" id="check" xmlns="http://www.w3.org/2000/svg" xmlns:xlink="http://www.w3.org/1999/xlink" x="0px" y="0px" xml:space="preserve" viewBox="0 0 490 490">
    <polygon points="452.253,28.326 197.831,394.674 29.044,256.875 0,292.469 207.253,461.674 490,54.528 "></polygon>
    <g></g>
    <g></g>
    <g></g>
    <g></g>
    <g></g>
    <g></g>
    <g></g>
    <g></g>
    <g></g>
    <g></g>
    <g></g>
    <g></g>
    <g></g>
    <g></g>
    <g></g>
  </symbol>
  <symbol version="1.1" xmlns="http://www.w3.org/2000/svg" xmlns:xlink="http://www.w3.org/1999/xlink" enable-background="new 0 0 470 470" viewBox="0 0 470 470" id="car">
    <g>
      <path d="m126.184,358.951c19.299,0 35-15.701 35-35s-15.701-35-35-35-35,15.701-35,35 15.701,35 35,35zm0-55c11.028,0 20,8.972 20,20s-8.972,20-20,20-20-8.972-20-20 8.971-20 20-20z"></path>
      <path d="m343.816,288.951c-19.299,0-35,15.701-35,35s15.701,35 35,35 35-15.701 35-35-15.701-35-35-35zm0,55c-11.028,0-20-8.972-20-20s8.972-20 20-20 20,8.972 20,20-8.971,20-20,20z"></path>
      <path d="m137.5,116.049h23.779c4.143,0 7.5-3.358 7.5-7.5s-3.357-7.5-7.5-7.5h-23.779c-10.423,0-27.031,7.176-34.177,14.767l-60.088,63.845c-2.051,2.179-2.609,5.368-1.423,8.115 1.187,2.747 3.893,4.525 6.885,4.525h290.271c2.562,0 4.945-1.307 6.323-3.467 1.377-2.159 1.558-4.873 0.478-7.195l-30.854-66.365c-3.315-7.046-14.628-14.225-22.415-14.225h-101.221c-4.143,0-7.5,3.358-7.5,7.5l-.001,68.752h-117.722l48.19-51.204c4.243-4.508 17.066-10.048 23.254-10.048zm61.279,0h93.7c2.203,0.103 7.842,3.681 8.849,5.581l25.883,55.671h-128.433l.001-61.252z"></path>
      <path d="m470,257.692c0-26.631-20.555-55.149-45.819-63.57-0.017-0.006-35.078-11.693-35.078-11.693-5.854-1.951-13.576-8.812-16.203-14.394l-30.84-65.535c-8.299-17.636-30.068-31.451-49.56-31.451h-155c-18.639,0-43.247,10.632-56.022,24.206l-69.158,73.482c-6.909,7.34-12.32,20.984-12.32,31.064v94.15c0,20.678 16.822,37.5 37.5,37.5h14.06c3.775,37.846 35.8,67.5 74.624,67.5s70.849-29.654 74.624-67.5h45.509c4.143,0 7.5-3.358 7.5-7.5s-3.357-7.5-7.5-7.5h-45.509c-3.775-37.846-35.8-67.5-74.624-67.5s-70.849,29.654-74.624,67.5h-14.06c-12.406,0-22.5-10.093-22.5-22.5v-94.15c0-6.294 3.929-16.2 8.242-20.783l69.159-73.483c9.941-10.563 30.594-19.486 45.099-19.486h155c13.682,0 30.162,10.458 35.987,22.838l30.84,65.535c4.421,9.395 15.182,18.955 25.031,22.238l28.498,9.499c-0.492,2.841-0.748,5.729-0.748,8.642 0,25.238 18.65,46.198 42.892,49.831v29.32c0,12.407-8.357,22.5-18.631,22.5h-17.929c-3.775-37.846-35.8-67.5-74.624-67.5-41.355,0-75,33.645-75,75s33.645,75 75,75c38.824,0 70.849-29.654 74.624-67.5h17.929c18.544,0 33.631-16.822 33.631-37.5v-36.26zm-343.816,6.259c33.084,0 60,26.916 60,60s-26.916,60-60,60-60-26.916-60-60 26.916-60 60-60zm217.632,120c-33.084,0-60-26.916-60-60s26.916-60 60-60 60,26.916 60,60-26.916,60-60,60zm83.292-169.15c0-0.969 0.04-1.934 0.117-2.893 13.16,7.627 23.787,22.37 26.864,37.266-15.466-3.785-26.981-17.756-26.981-34.373z"></path>
    </g>
  </symbol>
  <symbol xmlns="http://www.w3.org/2000/svg" viewBox="0 0 200 200" id="AI">
    <title>artificial intelligence</title>
    <path d="M106,27A23,23,0,1,0,62.45,37.33a18.45,18.45,0,0,0-9-2.33c-11,0-20,9.85-20,22a23.09,23.09,0,0,0,5.81,15.5A19.12,19.12,0,0,0,35,72c-12.7,0-23,12.54-23,28s10.3,28,23,28a19.12,19.12,0,0,0,4.31-.5A23.09,23.09,0,0,0,33.5,143c0,12.15,9,22,20,22a18.45,18.45,0,0,0,9-2.33A23,23,0,1,0,106,173c0-.34,0-0.67,0-1h0V28h0C106,27.67,106,27.34,106,27Z" fill="none" stroke="#220728" stroke-linejoin="bevel" stroke-width="8"></path>
    <path d="M67.26,189.26a23,23,0,0,0,32.53-32.53H86.9" fill="none" stroke="#220728" stroke-miterlimit="10" stroke-width="8"></path>
    <path d="M66.26,10.74A23,23,0,0,1,98.79,43.26H87.67" fill="none" stroke="#220728" stroke-miterlimit="10" stroke-width="8"></path>
    <polyline points="106 95 81 95 49.25 124.76" fill="none" stroke="#220728" stroke-miterlimit="10" stroke-width="8"></polyline>
    <line x1="44.97" y1="86.65" x2="62.45" y2="111.44" fill="none" stroke="#220728" stroke-miterlimit="10" stroke-width="8"></line>
    <line x1="62.45" y1="162.67" x2="74.5" y2="146" fill="none" stroke="#220728" stroke-miterlimit="10" stroke-width="8"></line>
    <polyline points="62.45 37.49 71 51 71 71" fill="none" stroke="#220728" stroke-miterlimit="10" stroke-width="8"></polyline>
    <line x1="152" y1="100" x2="104" y2="100" fill="none" stroke="#220728" stroke-miterlimit="10" stroke-width="8"></line>
    <polyline points="107 131 131 131 143 152.67" fill="none" stroke="#220728" stroke-miterlimit="10" stroke-width="8"></polyline>
    <polyline points="107 70 131 70 143 48.33" fill="none" stroke="#220728" stroke-miterlimit="10" stroke-width="8"></polyline>
    <circle cx="171" cy="100" r="16" fill="none" stroke="#ffc548" stroke-miterlimit="10" stroke-width="8"></circle>
    <circle cx="149" cy="170" r="16" fill="none" stroke="#ffc548" stroke-miterlimit="10" stroke-width="8"></circle>
    <circle cx="149" cy="30" r="16" fill="none" stroke="#ffc548" stroke-miterlimit="10" stroke-width="8"></circle>
  </symbol>
</svg>
